# xmcd
#
# Track frame offsets:
#	150
#	17400
#	33390
#	55140
#	72210
#	92466
#	107555
#	121205
#	135395
#	150485
#	162155
#	179951
#	194141
#	206351
#
# Disc length: 2955 seconds
#
# Revision: 0
# Processed by: cddbd v1.5.2PL0 Copyright (c) Steve Scherf et al.
# Submitted via: EasyCDDAExtractor 10.2.0.1
#
DISCID=b60b890e
DTITLE=As Moreninhas - Forromantic
DYEAR=2007
DGENRE=Sertanejo
TTITLE0=Desse jeito você me mata
TTITLE1=Eu culpo você
TTITLE2=O beijo
TTITLE3=Praia deserta
TTITLE4=Separação
TTITLE5=Amor por interesse
TTITLE6=Vevendo o presente
TTITLE7=Mais uma lição
TTITLE8=Coração bandido
TTITLE9=Cara ou coroa
TTITLE10=Fique comigo
TTITLE11=Amor com amor se paga
TTITLE12=O bailão
TTITLE13=Porque recordação
EXTD=
EXTT0=
EXTT1=
EXTT2=
EXTT3=
EXTT4=
EXTT5=
EXTT6=
EXTT7=
EXTT8=
EXTT9=
EXTT10=
EXTT11=
EXTT12=
EXTT13=
PLAYORDER=
